# xmcd CD database file
#
# Track frame offsets:
#	187
#	16875
#	29167
#	53000
#	73112
#	93525
#	116672
#	132802
#	150277
#	170665
#
# Disc length: 2563 seconds
#
# Revision: 0
# Processed by: cddbd v1.5PL3 Copyright (c) Steve Scherf et al.
# Submitted via: CDex 1.50beta8
#
DISCID=810a010a
DTITLE=パール兄弟 - トーイヴォックス
DYEAR=1900
DGENRE=Rock
TTITLE0=TOYVOX
TTITLE1=ゴム男
TTITLE2=タンポポの微笑み
TTITLE3=Flip Flop Lover
TTITLE4=AT HOME
TTITLE5=ホレゴロンゴ
TTITLE6=JANEのパーツ
TTITLE7=L'Makes You Wolf
TTITLE8=シュガシュガ天国
TTITLE9=BACK YOU
EXTD=
EXTT0=
EXTT1=
EXTT2=
EXTT3=
EXTT4=
EXTT5=
EXTT6=
EXTT7=
EXTT8=
EXTT9=
PLAYORDER=
